<?xml version="1.0" encoding="utf-8"?>
<svg width="20px" height="15px" viewBox="0 0 20 15" version="1.1" xmlns:xlink="http://www.w3.org/1999/xlink" xmlns="http://www.w3.org/2000/svg">
  <path d="M19.029 2.84821C19.029 3.1756 18.9144 3.45387 18.6853 3.68304L8.12723 14.2411C7.89806 14.4702 7.61979 14.5848 7.29241 14.5848C6.96503 14.5848 6.68676 14.4702 6.45759 14.2411L0.34375 8.12723C0.114582 7.89806 0 7.61979 0 7.29241C0 6.96503 0.114582 6.68676 0.34375 6.45759L2.01339 4.78795C2.24256 4.55878 2.52083 4.4442 2.84821 4.4442C3.1756 4.4442 3.45387 4.55878 3.68304 4.78795L7.29241 8.4096L15.346 0.34375C15.5752 0.114582 15.8534 0 16.1808 0C16.5082 0 16.7865 0.114582 17.0156 0.34375L18.6853 2.01339C18.9144 2.24256 19.029 2.52083 19.029 2.84821Z" id="checkmark_icon" fill="#D7FAE9" fill-rule="evenodd" stroke="none" />
</svg>