<?xml version="1.0" encoding="utf-8"?>
<svg width="19px" height="19px" viewBox="0 0 19 19" version="1.1" xmlns:xlink="http://www.w3.org/1999/xlink" xmlns="http://www.w3.org/2000/svg">
  <path d="M9.42857 0C11.1391 0 12.7167 0.421499 14.1613 1.26451C15.6058 2.10752 16.7496 3.25129 17.5926 4.69587C18.4356 6.14045 18.8571 7.718 18.8571 9.42857C18.8571 11.1391 18.4356 12.7167 17.5926 14.1613C16.7496 15.6058 15.6058 16.7496 14.1613 17.5926C12.7167 18.4356 11.1391 18.8571 9.42857 18.8571C7.718 18.8571 6.14045 18.4356 4.69587 17.5926C3.25129 16.7496 2.10752 15.6058 1.26451 14.1613C0.421499 12.7167 0 11.1391 0 9.42857C0 7.718 0.421499 6.14045 1.26451 4.69587C2.10752 3.25129 3.25129 2.10752 4.69587 1.26451C6.14045 0.421499 7.718 0 9.42857 0ZM11 15.3092L11 12.9766C11 12.862 10.9632 12.7658 10.8895 12.6881C10.8158 12.6103 10.7258 12.5714 10.6194 12.5714L8.26228 12.5714C8.15588 12.5714 8.06176 12.6124 7.97991 12.6942C7.89807 12.776 7.85714 12.8702 7.85714 12.9766L7.85714 15.3092C7.85714 15.4156 7.89807 15.5097 7.97991 15.5915C8.06176 15.6734 8.15588 15.7143 8.26228 15.7143L10.6194 15.7143C10.7258 15.7143 10.8158 15.6754 10.8895 15.5977C10.9632 15.5199 11 15.4237 11 15.3092ZM10.9754 11.0859L11.1964 3.46205C11.1964 3.36384 11.1555 3.29018 11.0737 3.24107C10.9918 3.17559 10.8936 3.14286 10.779 3.14286L8.07813 3.14286C7.96354 3.14286 7.86533 3.17559 7.78348 3.24107C7.70164 3.29018 7.66071 3.36384 7.66071 3.46205L7.86942 11.0859C7.86942 11.1678 7.91034 11.2394 7.99219 11.3008C8.07403 11.3622 8.17225 11.3929 8.28683 11.3929L10.558 11.3929C10.6726 11.3929 10.7688 11.3622 10.8465 11.3008C10.9243 11.2394 10.9673 11.1678 10.9754 11.0859Z" id="danger_icon" fill="#FAD7DE" fill-rule="evenodd" stroke="none" />
</svg>