<?xml version="1.0" encoding="utf-8"?>
<svg width="8px" height="18px" viewBox="0 0 8 18" version="1.1" xmlns:xlink="http://www.w3.org/1999/xlink" xmlns="http://www.w3.org/2000/svg">
  <path d="M7.85714 14.9286L7.85714 16.5C7.85714 16.7128 7.77939 16.8969 7.62388 17.0525C7.46838 17.208 7.28423 17.2857 7.07143 17.2857L0.785714 17.2857C0.572916 17.2857 0.388766 17.208 0.233259 17.0525C0.0777522 16.8969 0 16.7128 0 16.5L0 14.9286C0 14.7158 0.0777522 14.5316 0.233259 14.3761C0.388766 14.2206 0.572916 14.1429 0.785714 14.1429L1.57143 14.1429L1.57143 9.42857L0.785714 9.42857C0.572916 9.42857 0.388766 9.35082 0.233259 9.19531C0.0777522 9.03981 0 8.85566 0 8.64286L0 7.07143C0 6.85863 0.0777522 6.67448 0.233259 6.51897C0.388766 6.36347 0.572916 6.28571 0.785714 6.28571L5.5 6.28571C5.7128 6.28571 5.89695 6.36347 6.05246 6.51897C6.20796 6.67448 6.28571 6.85863 6.28571 7.07143L6.28571 14.1429L7.07143 14.1429C7.28423 14.1429 7.46838 14.2206 7.62388 14.3761C7.77939 14.5316 7.85714 14.7158 7.85714 14.9286ZM6.28571 0.785714L6.28571 3.14286C6.28571 3.35566 6.20796 3.53981 6.05245 3.69531C5.89695 3.85082 5.7128 3.92857 5.5 3.92857L2.35714 3.92857C2.14434 3.92857 1.96019 3.85082 1.80469 3.69531C1.64918 3.53981 1.57143 3.35566 1.57143 3.14286L1.57143 0.785714C1.57143 0.572916 1.64918 0.388766 1.80469 0.233259C1.96019 0.0777522 2.14434 0 2.35714 0L5.5 0C5.7128 0 5.89695 0.0777522 6.05245 0.233259C6.20796 0.388766 6.28571 0.572916 6.28571 0.785714Z" id="info_icon" fill="#CEF8FF" fill-rule="evenodd" stroke="none" />
</svg>