<?xml version="1.0" encoding="utf-8"?>
<svg width="23px" height="21px" viewBox="0 0 23 21" version="1.1" xmlns:xlink="http://www.w3.org/1999/xlink" xmlns="http://www.w3.org/2000/svg">
  <path d="M12.5839 16.8806L12.5839 14.548C12.5839 14.4334 12.545 14.3372 12.4672 14.2595C12.3895 14.1817 12.2974 14.1429 12.191 14.1429L9.83388 14.1429C9.72748 14.1429 9.6354 14.1817 9.55765 14.2595C9.4799 14.3372 9.44102 14.4334 9.44102 14.548L9.44102 16.8806C9.44102 16.9952 9.4799 17.0913 9.55765 17.1691C9.6354 17.2468 9.72748 17.2857 9.83388 17.2857L12.191 17.2857C12.2974 17.2857 12.3895 17.2468 12.4672 17.1691C12.545 17.0913 12.5839 16.9952 12.5839 16.8806ZM12.5593 12.2891L12.7803 6.65402C12.7803 6.5558 12.7394 6.47805 12.6575 6.42076C12.5511 6.33073 12.4529 6.28571 12.3629 6.28571L9.662 6.28571C9.57197 6.28571 9.47376 6.33073 9.36736 6.42076C9.28551 6.47805 9.24459 6.56399 9.24459 6.67857L9.4533 12.2891C9.4533 12.3709 9.49422 12.4384 9.57607 12.4916C9.65791 12.5448 9.75612 12.5714 9.87071 12.5714L12.1419 12.5714C12.2565 12.5714 12.3527 12.5448 12.4304 12.4916C12.5082 12.4384 12.5511 12.3709 12.5593 12.2891ZM12.3874 0.822545L21.816 18.1083C22.1025 18.6239 22.0943 19.1395 21.7915 19.6551C21.6523 19.8925 21.462 20.0807 21.2206 20.2199C20.9792 20.359 20.7193 20.4286 20.441 20.4286L1.58388 20.4286C1.3056 20.4286 1.04575 20.359 0.804301 20.2199C0.562856 20.0807 0.372568 19.8925 0.233431 19.6551C-0.0693984 19.1395 -0.0775828 18.6239 0.208877 18.1083L9.63745 0.822545C9.77659 0.568823 9.96892 0.368304 10.2145 0.220982C10.46 0.07366 10.726 0 11.0124 0C11.2989 0 11.5649 0.07366 11.8104 0.220982C12.056 0.368304 12.2483 0.568823 12.3874 0.822545Z" id="warning_icon" fill="#FFFCF5" fill-rule="evenodd" stroke="none" />
</svg>